<svg xmlns="http://www.w3.org/2000/svg" width="113.87" height="100" viewBox="0 0 113.87 100">
  <g id="Group_199" data-name="Group 199" transform="translate(-26.999 -62.784)">
    <path id="Path_612" data-name="Path 612" d="M194.566,391.585c0,6.122-14.077,11.085-31.744,11.085s-31.989-4.963-31.989-11.085S145.155,380.5,162.822,380.5,194.566,385.463,194.566,391.585Z" transform="translate(-78.398 -239.885)" fill="#62e3ff"/>
    <g id="Group_194" data-name="Group 194" transform="translate(66.133 147.928)">
      <path id="Path_613" data-name="Path 613" d="M267.877,429.884V424.04c0-3.756,2.633-4.9,2.633-6.288,0-2.388-4.807.227-6.288,1.715-2.256,2.266-2,3.154-1.946,6.951.014.983.018,2.279.016,3.649C264.2,430.063,266.067,430,267.877,429.884Z" transform="translate(-243.747 -415.211)" fill="#43afff"/>
      <path id="Path_614" data-name="Path 614" d="M196.211,424.783c-.012-3.226-.03-7.578-.03-9.286,0-3.276-4.654-5.144-6.89-5.144-1.133,0-2.542.058-2.542.657,0,1.517,4.256,2.405,4.256,5.559,0,1.737-.025,5.211-.043,7.513C192.636,424.366,194.39,424.6,196.211,424.783Z" transform="translate(-186.75 -410.353)" fill="#43afff"/>
      <path id="Path_615" data-name="Path 615" d="M297.989,416.551c.041-2.981,4.409-4.41,4.246-5.369s-3.657-.8-5.288-.234c-4.627,1.613-4.164,5.461-4.164,5.461l-.124,8.586c1.875-.16,3.682-.378,5.406-.648C298.043,419.115,297.968,418.108,297.989,416.551Z" transform="translate(-266.715 -410.457)" fill="#43afff"/>
      <path id="Path_616" data-name="Path 616" d="M229.709,421.367c-1.855-4.1-7.459-5.512-7.459-3.644,0,1.255,1.133.857,1.9,3.674a60.116,60.116,0,0,1,.567,8.487c1.916.151,3.9.242,5.928.268C230.6,426.582,230.375,422.851,229.709,421.367Z" transform="translate(-213.554 -415.304)" fill="#43afff"/>
    </g>
    <path id="Path_617" data-name="Path 617" d="M109.625,296.242c-1.973,0-.009-3.1,0-4.491C109.659,293.182,111.6,296.242,109.625,296.242Z" transform="translate(-61.722 -172.877)" fill="#62e3ff"/>
    <g id="Group_196" data-name="Group 196" transform="translate(26.999 62.784)">
      <g id="Group_195" data-name="Group 195">
        <path id="Path_618" data-name="Path 618" d="M192.885,168.5c9.865,0,12.371,6.982,12.371,12.371,0,7.347-3.7,12.672-12.9,14.049a32.463,32.463,0,0,1-3.64.326c-5.553.2-11.1.174-15.678,0q-1-.037-1.955-.122c-9.6-.84-16.418-5.181-16.418-14.9,0-3.682,2.489-11.717,12.533-11.717.995,0,7.489.612,13.76.612C186.531,169.112,192.162,168.5,192.885,168.5Z" transform="translate(-123.395 -142.603)" fill="#ffc09f"/>
        <path id="Path_619" data-name="Path 619" d="M140.569,104.732a.368.368,0,0,1-.066.73.642.642,0,0,1-.069,0c-5.01-.926-12.3-1.945-24.749-1.83-.218.723-.463,1.411-.73,2.068,4.238.142,15.876.6,25.366,3.5a.368.368,0,0,1-.105.72.32.32,0,0,1-.108-.017c-9.622-2.942-21.513-3.346-25.467-3.476-3.067,6.734-9,9.708-18.329,11.107l-.348-2.425c9.2-1.376,12.9-6.7,12.9-14.049,0-5.389-2.506-12.371-12.371-12.371-.723,0-6.354.612-11.923.612-6.271,0-12.765-.612-13.76-.612-10.044,0-12.533,8.035-12.533,11.717,0,9.723,6.817,14.064,16.418,14.9l-.267,2.682c-11.413-1.156-18.2-5.171-21.734-11.589a98.4,98.4,0,0,0-24.073,3.275l-1.073.269a.36.36,0,0,1-.088.01.368.368,0,0,1-.088-.725c.348-.086.706-.174,1.071-.267a98.83,98.83,0,0,1,23.87-3.287,22.113,22.113,0,0,1-.9-2.058c-4.664-.039-19.036.622-23.958,1.84a.36.36,0,0,1-.088.01.368.368,0,0,1-.088-.725c4.877-1.205,18.9-1.874,23.87-1.862a35.034,35.034,0,0,1-1.612-11.259c0-7.467,2.327-10.284,5.451-14.265-2.388-8.513.857-14.331.857-14.331s5.022-1.041,14.514,5.757c5.144-2.2,18.863-2.388,25.354-.49,3.981-2.633,11.269-6.369,14.208-5.323.8,1.281,2.511,5.017,1.041,13.223,1,1.8,6.185,5.634,6.205,16.474A42.862,42.862,0,0,1,115.9,102.89,123.842,123.842,0,0,1,140.569,104.732Z" transform="translate(-26.999 -62.784)" fill="#fff"/>
        <path id="Path_620" data-name="Path 620" d="M159.561,303.15c.039,2.981,4.409,4.409,4.245,5.37s-3.657.8-5.289.233c-4.625-1.612-4.162-5.46-4.162-5.46l-.154-10.563s.316-5.686-1.786-5.686v17.29c0,3.758,2.633,4.9,2.633,6.288,0,2.388-4.806-.225-6.288-1.715-2.256-2.266-2-7.072-1.945-10.872.051-3.67-.034-11.7-.034-11.7l-1.531.032s.627,17.535-.808,20.729c-1.857,4.1-7.459,5.514-7.459,3.645,0-1.257,1.379-.857,2.143-3.675.652-2.4.429-20.271.429-20.271s-1.8,1.061-1.8,4.409c0,1.531-.042,10.286-.042,12.89,0,3.278-4.654,5.144-6.891,5.144-1.132,0-2.54-.056-2.54-.656,0-1.516,4.255-2.406,4.255-5.558,0-2.734-.059-9.767-.059-9.767a34.1,34.1,0,0,1-5.208.367c-7.717,0-10.156-4.924-11.318-7.68a13.438,13.438,0,0,0-5.553-6.622c-1.279-.828-1.573-1.8-.093-2.082,6.83-1.286,8.576,7.746,13.138,9.186,3.256,1.026,7.442.583,9.524-.764a9.909,9.909,0,0,1,3.92-6.4c-.105-.01-.211-.02-.314-.032l.267-2.682q.959.085,1.955.122c4.574.176,10.125.2,15.678,0a32.494,32.494,0,0,0,3.64-.326l.348,2.425q-1.712.257-3.581.448c3.7,2.327,4.757,5.247,4.757,13.147S159.536,301.332,159.561,303.15Z" transform="translate(-89.152 -224.033)" fill="#fff"/>
      </g>
    </g>
    <path id="Path_621" data-name="Path 621" d="M191.326,194.652c0-4.318-2.349-7.818-5.246-7.818s-5.246,3.5-5.246,7.818,2.349,7.329,5.246,7.329S191.326,198.97,191.326,194.652Z" transform="translate(-116.149 -93.661)" fill="#fff"/>
    <path id="Path_622" data-name="Path 622" d="M307.076,194.652c0-4.318-2.349-7.818-5.246-7.818s-5.247,3.5-5.247,7.818,2.349,7.329,5.247,7.329S307.076,198.97,307.076,194.652Z" transform="translate(-203.544 -93.661)" fill="#fff"/>
    <g id="Group_197" data-name="Group 197" transform="translate(80.484 110.198)">
      <path id="Path_623" data-name="Path 623" d="M248.579,259.151c-1.875,0-3.246-1.611-3.246-2.45a.367.367,0,1,1,.735,0,2.723,2.723,0,0,0,2.511,1.715A2.094,2.094,0,0,0,250.8,256.7a.367.367,0,1,1,.735,0A2.805,2.805,0,0,1,248.579,259.151Z" transform="translate(-245.333 -256.334)" fill="#b1423a"/>
    </g>
    <circle id="Ellipse_3" data-name="Ellipse 3" cx="1.266" cy="1.266" r="1.266" transform="translate(82.423 106.258)" fill="#b1423a"/>
    <ellipse id="Ellipse_4" data-name="Ellipse 4" cx="3.45" cy="5.063" rx="3.45" ry="5.063" transform="translate(66.48 95.928)" fill="#b1423a"/>
    <ellipse id="Ellipse_5" data-name="Ellipse 5" cx="3.45" cy="5.063" rx="3.45" ry="5.063" transform="translate(94.835 95.928)" fill="#b1423a"/>
    <ellipse id="Ellipse_6" data-name="Ellipse 6" cx="0.827" cy="0.551" rx="0.827" ry="0.551" transform="translate(49.567 116.373)" fill="#b0f5df"/>
    <ellipse id="Ellipse_7" data-name="Ellipse 7" cx="0.827" cy="0.551" rx="0.827" ry="0.551" transform="translate(52.139 117.772)" fill="#b0f5df"/>
    <ellipse id="Ellipse_8" data-name="Ellipse 8" cx="0.827" cy="0.551" rx="0.827" ry="0.551" transform="translate(53.711 119.639)" fill="#b0f5df"/>
    <ellipse id="Ellipse_9" data-name="Ellipse 9" cx="0.827" cy="0.551" rx="0.827" ry="0.551" transform="translate(55.089 121.752)" fill="#b0f5df"/>
    <ellipse id="Ellipse_10" data-name="Ellipse 10" cx="0.827" cy="0.551" rx="0.827" ry="0.551" transform="translate(56.661 123.743)" fill="#b0f5df"/>
    <ellipse id="Ellipse_11" data-name="Ellipse 11" cx="0.827" cy="0.551" rx="0.827" ry="0.551" transform="translate(58.784 125.437)" fill="#b0f5df"/>
    <ellipse id="Ellipse_12" data-name="Ellipse 12" cx="0.827" cy="0.551" rx="0.827" ry="0.551" transform="translate(61.754 126.539)" fill="#b0f5df"/>
    <ellipse id="Ellipse_13" data-name="Ellipse 13" cx="0.827" cy="0.551" rx="0.827" ry="0.551" transform="translate(64.735 126.539)" fill="#b0f5df"/>
    <ellipse id="Ellipse_14" data-name="Ellipse 14" cx="0.827" cy="0.551" rx="0.827" ry="0.551" transform="translate(67.725 126.07)" fill="#b0f5df"/>
  </g>
</svg>
