<svg xmlns="http://www.w3.org/2000/svg" xmlns:xlink="http://www.w3.org/1999/xlink" width="1177.564" height="900" viewBox="0 0 1177.564 900">
  <defs>
    <linearGradient id="linear-gradient" x1="0.011" y1="0.022" x2="1" y2="0.896" gradientUnits="objectBoundingBox">
      <stop offset="0" stop-color="#040026"/>
      <stop offset="1" stop-color="#2a3752"/>
    </linearGradient>
  </defs>
  <g id="Group_189" data-name="Group 189" transform="translate(-681 -90)">
    <g id="BACKGROUND" transform="translate(734.915 90)">
      <g id="Group_136" data-name="Group 136">
        <path id="Path_532" data-name="Path 532" d="M1081.913,385.859c16.493,29.983,40.477,58.257,42.551,92.06,3.329,54.294-49.609,95.23-71.255,145.547-26.574,61.765-4.288,134.535-27.809,197.417-17.045,45.569-58.855,81.967-107.987,94.013-36.822,9.028-75.555,4.949-113.572,5.319-107.935,1.053-215.458,38.375-321.925,21.432-52.575-8.37-102.276-29.724-155.089-36.576C263.5,896.855,189.7,906.793,144.443,863.75c-63.233-60.132-16.29-170.7-63.744-242.837-15.281-23.231-39.9-41.406-48.151-67.677-9.644-30.7,5.98-63.414,25.38-89.584s43.4-50.27,53.912-80.712c9.54-27.64,3.714-57.685-8.022-84.548-17.979-41.155,32.065-135.518,131.332-128.445,45.5,3.242,65.985-49.465,115.9-64.075,57.154-16.727,128.9-3.279,171.019,10.717,42.789,14.223,95.683,21.7,120.213-14.64,34.628-51.3,137.863-59.33,184.22,23.981,16.933,30.433,32.01,54.108,68.047,51.785C1089.855,165.129,1057.4,341.3,1081.913,385.859ZM549.566,104.378c0,6.986,0,18.975,30.8,17.015,9.45-.6,17.149-5.664,17.149-12.65s-7.676-12.653-17.149-12.653S549.566,93.214,549.566,104.378Zm-303.409,33.9a6.444,6.444,0,0,0-2.035,2.447c-1.995,3.09-5.446,5.063-8.966,6.439-2.064.807-4.283,1.508-5.806,3.061a6.273,6.273,0,0,0,.6,9.04c2.2,1.744,5.316,1.918,8.178,1.779a51.837,51.837,0,0,0,29.439-11C278.411,141.422,252.119,135.047,246.157,138.274Zm-29.223,16.1c-3.61-2.368-8.265-1-11.858.847a3.228,3.228,0,0,0-1.806,1.761c-.472,1.7,1.677,2.9,3.426,3.451,2.728.852,5.7,1.684,8.412.783S220.544,156.74,216.934,154.375ZM80.713,377.114c-2.668-8.143-8.978-12.193-18.525-7.555-5.7,2.768-9.666,7.91-13.07,13.07-5.5,8.332-10.22,17.855-9.065,27.635A26,26,0,0,0,51.1,428.32a14.575,14.575,0,0,0,8.541,2.969c3.386-.114,6.444-1.94,9.073-3.98,6.211-4.822,10.991-11.078,15.7-17.261,2.442-3.2,4.964-6.6,5.431-10.538C90.839,391.165,83.17,384.607,80.713,377.114Zm998.621,250.872c-2.442.994-4.934,2.248-6.332,4.4a12.781,12.781,0,0,0-1.607,5.682,113.316,113.316,0,0,0-.691,12.344c-.007,4.514.485,9.522,3.953,12.593,4.673,4.139,12.094,2.69,18.215.981,3.451-.964,7.13-2.07,9.346-4.77,1.622-1.972,2.216-4.526,2.661-7,1.483-8.238,6.019-20.721.991-24.987S1088.092,624.415,1079.334,627.985ZM734.328,947.023a14.329,14.329,0,0,0-3.167,3.93,8.656,8.656,0,0,0,4.457,11.472,18.2,18.2,0,0,0,7.09.845c20.545-.276,42.633-1.028,59.044-12.819,2-1.438,4.074-3.458,3.719-5.826-.43-2.865-3.982-4.1-6.959-4.678C777.972,935.981,750.836,931.549,734.328,947.023ZM344.319,915.306c-17.872-2.41-46.29-5.821-46.282,8.633,0,5.455,25.218,10.7,29.389,11.711,12.9,3.118,24.989,7.716,37.6,12.372,23.395,8.643,42.131-3,23.606-16.051C373.353,921.209,358.728,917.249,344.319,915.306Z" transform="translate(-29.616 -63.281)" fill="#c8eefb"/>
      </g>
    </g>
    <g id="Group_152" data-name="Group 152" transform="translate(1605.429 532.767)">
      <g id="Group_137" data-name="Group 137" transform="translate(25.77)">
        <path id="Path_533" data-name="Path 533" d="M396,309.138s41.52-3.791,80.864-19.907c1.245-.509,2,7.945,2,7.945s5.791-11.306,7.806-12.255c21.3-10.042,40.824-24.038,51.293-43.413,0,0,5.157,118.8-147.562,145.19Z" transform="translate(-390.396 -241.508)" fill="#5084da"/>
      </g>
      <g id="Group_138" data-name="Group 138" transform="translate(10.655 203.156)">
        <path id="Path_534" data-name="Path 534" d="M455.815,323.284s50.4,26.716,148.961,31.359c0,0-67.051,61.188-220.464,40.124l5.031-69.689Z" transform="translate(-384.312 -323.284)" fill="#5084da"/>
      </g>
      <g id="Group_139" data-name="Group 139" transform="translate(11.646 90.317)">
        <path id="Path_535" data-name="Path 535" d="M384.711,322.873S407.462,308.34,444.4,295.79c1.471-.5,4.586,8.206,4.586,8.206s5.046-11.338,7.711-12.136c44.116-13.212,104.487-21.837,169.506-3.486,0,0-19.7,27.442-60.016,57.482-1.719,1.279-13.107.268-13.107.268s4.782,5.761,3.212,6.854c-38.313,26.639-92.627,53.78-163.576,64.53Z" transform="translate(-384.711 -277.863)" fill="#5193f4"/>
      </g>
      <g id="Group_145" data-name="Group 145" transform="translate(0 100.828)" opacity="0.4" style="mix-blend-mode: multiply;isolation: isolate">
        <g id="Group_140" data-name="Group 140">
          <path id="Path_536" data-name="Path 536" d="M633.157,282.094a566.238,566.238,0,0,1-59.347,32.88c-20.346,9.94-41.264,18.677-62.448,26.681-10.573,4.062-21.387,7.45-32.109,11.087l-16.272,4.874c-2.715.8-5.416,1.652-8.146,2.4l-8.238,2.067c-21.864,5.92-44.206,9.895-66.574,13.092l16.6-3.423,8.3-1.674c2.757-.611,5.488-1.337,8.233-2l16.466-3.925,16.309-4.514c10.9-2.9,21.608-6.479,32.4-9.746,10.648-3.716,21.38-7.195,31.881-11.319,21.193-7.716,42.009-16.463,62.517-25.879q15.4-7.035,30.51-14.685Q618.392,290.437,633.157,282.094Z" transform="translate(-380.023 -282.094)" fill="#5084da"/>
        </g>
        <g id="Group_141" data-name="Group 141" transform="translate(115.261 12.66)">
          <path id="Path_537" data-name="Path 537" d="M426.419,338.227c4.211-3.933,8.288-7.937,12.364-11.917,4.037-4.022,8.022-8.071,11.853-12.26,3.873-4.151,7.493-8.509,11.063-12.921,3.485-4.479,6.777-9.1,9.927-13.939a74.938,74.938,0,0,1-7.845,15.44,114.415,114.415,0,0,1-10.725,13.641A121.454,121.454,0,0,1,426.419,338.227Z" transform="translate(-426.419 -287.19)" fill="#5084da"/>
        </g>
        <g id="Group_142" data-name="Group 142" transform="translate(54.222 33.165)">
          <path id="Path_538" data-name="Path 538" d="M401.849,344.29a109.283,109.283,0,0,0,12.725-9.91A100.081,100.081,0,0,0,425.6,322.866a94.428,94.428,0,0,0,9.147-13.033,139.466,139.466,0,0,0,7.314-14.389,60.747,60.747,0,0,1-5.048,15.6,65.258,65.258,0,0,1-8.879,13.92,67.841,67.841,0,0,1-11.937,11.4A54.543,54.543,0,0,1,401.849,344.29Z" transform="translate(-401.849 -295.444)" fill="#5084da"/>
        </g>
        <g id="Group_143" data-name="Group 143" transform="translate(115.261 60.274)">
          <path id="Path_539" data-name="Path 539" d="M426.419,309.779a211.5,211.5,0,0,0,23.362-.119c3.856-.2,7.687-.653,11.515-1.21,3.853-.5,7.622-1.386,11.562-2.094a44.077,44.077,0,0,1-11.03,4.6,57.028,57.028,0,0,1-11.833,1.98,63.444,63.444,0,0,1-11.974-.343A46.63,46.63,0,0,1,426.419,309.779Z" transform="translate(-426.419 -306.356)" fill="#5084da"/>
        </g>
        <g id="Group_144" data-name="Group 144" transform="translate(55.459 82.101)">
          <path id="Path_540" data-name="Path 540" d="M402.347,315.142c4.745.569,9.45,1.024,14.128,1.508,4.685.427,9.356.82,14.029,1.021,4.673.233,9.336.206,14.011.082a140.157,140.157,0,0,0,14.061-1.4,51.946,51.946,0,0,1-13.82,3.96,82.6,82.6,0,0,1-14.4.646A88.191,88.191,0,0,1,402.347,315.142Z" transform="translate(-402.347 -315.142)" fill="#5084da"/>
        </g>
      </g>
      <g id="Group_147" data-name="Group 147" transform="translate(42.645 30.872)" opacity="0.228">
        <g id="Group_146" data-name="Group 146">
          <path id="Path_541" data-name="Path 541" d="M512.184,253.935c-4.064,11.145-11.236,20.965-19.367,29.61a128.479,128.479,0,0,1-28.083,21.941l-7.878,4.213c-2.616,1.429-5.418,2.46-8.129,3.682a146.621,146.621,0,0,1-16.749,6.067c-2.792,1.009-5.724,1.545-8.6,2.271l-8.64,2.054c-5.853.917-11.706,1.774-17.554,2.507,5.734-1.471,11.5-2.636,17.191-4.079l8.452-2.484a87.693,87.693,0,0,0,8.37-2.673c5.448-2.149,11.05-3.876,16.277-6.514,2.628-1.264,5.389-2.266,7.93-3.7l7.681-4.189a149.146,149.146,0,0,0,27.938-20.87,86.037,86.037,0,0,0,6.094-6.28c.964-1.1,1.97-2.161,2.9-3.289l2.708-3.448A85.148,85.148,0,0,0,512.184,253.935Z" transform="translate(-397.189 -253.935)" fill="#605aca" opacity="0.5" style="mix-blend-mode: multiply;isolation: isolate"/>
        </g>
      </g>
      <g id="Group_151" data-name="Group 151" transform="translate(33.903 224.312)">
        <g id="Group_148" data-name="Group 148">
          <path id="Path_542" data-name="Path 542" d="M558.689,350.392c-6.906,1.327-13.895,2.144-20.881,2.966q-10.5,1.017-21.052,1.543a359.972,359.972,0,0,1-42.245-.6c-7.026-.594-14.039-1.4-21.007-2.522a191.146,191.146,0,0,1-20.754-4.166c-13.649-3.538-27.064-8.469-39.08-15.815a153.819,153.819,0,0,0,19.477,7.836,188.949,188.949,0,0,0,20.192,5.52,294.85,294.85,0,0,0,41.433,5.873c13.919,1.23,27.918,1.5,41.913,1.356C530.684,352.216,544.693,351.592,558.689,350.392Z" transform="translate(-393.67 -331.8)" fill="#4ca1ff"/>
        </g>
        <g id="Group_149" data-name="Group 149" transform="translate(53.76 17.537)">
          <path id="Path_543" data-name="Path 543" d="M460.509,364.539a52.777,52.777,0,0,1-26.977-5.334,41.59,41.59,0,0,1-11.276-8.355,31.5,31.5,0,0,1-6.946-11.992,51.715,51.715,0,0,0,8.735,10.151,55.842,55.842,0,0,0,10.966,7.262,85.592,85.592,0,0,0,12.359,4.914A131.386,131.386,0,0,0,460.509,364.539Z" transform="translate(-415.31 -338.859)" fill="#4ca1ff"/>
        </g>
        <g id="Group_150" data-name="Group 150" transform="translate(23.65 10.543)">
          <path id="Path_544" data-name="Path 544" d="M441.756,370.9a52.782,52.782,0,0,1-25.183-11.048,41.593,41.593,0,0,1-9.2-10.6,31.5,31.5,0,0,1-4.184-13.211,51.853,51.853,0,0,0,6.328,11.8,55.912,55.912,0,0,0,9.135,9.463,85.4,85.4,0,0,0,11,7.473A130.433,130.433,0,0,0,441.756,370.9Z" transform="translate(-403.19 -336.044)" fill="#4ca1ff"/>
        </g>
      </g>
    </g>
    <g id="Group_153" data-name="Group 153" transform="translate(1123.377 767.623)">
      <path id="Path_545" data-name="Path 545" d="M361.372,471.336A81.966,81.966,0,0,0,299.3,443.5c-17.281.226-34.246,5.97-51.487,4.911a65.821,65.821,0,0,1-61.171-75.182c2-13.661,9.142-27.374,21.514-33.491,6.74-3.321,14.533-4.154,22.023-3.48a61.97,61.97,0,0,1,19.78,5.291c14.3,6.35,26.746,17.537,36.691,29.891,9.028,11.236,29.648,27.762,43.587,38.432,8.173,6.228,14.066,10.446,14.066,10.446C354.13,429.406,354.644,459.759,361.372,471.336Z" transform="translate(-185.983 -336.044)" fill="#52d2bc"/>
      <path id="Path_546" data-name="Path 546" d="M195.637,352.979c43.425,12.369,91.392,29.9,125.3,59.717" transform="translate(-171.653 -310.908)" fill="none" stroke="#00ad9f" stroke-linecap="round" stroke-linejoin="round" stroke-width="1"/>
    </g>
    <g id="Group_154" data-name="Group 154" transform="translate(1318.809 770.642)">
      <path id="Path_547" data-name="Path 547" d="M373.06,370.2c-.641,7.217-2.121,14.593-5.622,21.146a47.6,47.6,0,0,1-9.4,11.982,72.311,72.311,0,0,1-6.024,5.1,87.818,87.818,0,0,1-26.361,13.828c-13.579,4.32-28.12,5.123-40.6,12.777A49.388,49.388,0,0,0,264.7,460.524l-.052-12.161c1.329-13.467,2.693-27.181,7.711-40.052a114.2,114.2,0,0,1,13.033-23.486,162.755,162.755,0,0,1,28.415-31.948c8.767-7.4,18.806-13.674,29.526-15.271,10.7-1.6,22.093,2.358,27,11.791C373.482,355.456,373.71,362.964,373.06,370.2Z" transform="translate(-264.65 -337.259)" fill="#5193f4"/>
      <path id="Path_548" data-name="Path 548" stroke="#0b43a4" d="M267.684,429.75A100.9,100.9,0,0,1,304.6,385.192c10.027-6.583,21.015-11.08,31.25-17.248s20.091-14.555,24.89-25.8" fill="none" transform="translate(-260.147 -330.009)" stroke-linecap="round" stroke-linejoin="round" stroke-width="1" opacity="0.31"/>
    </g>
    <g id="Group_155" data-name="Group 155" transform="translate(1292.759 847.997)">
      <path id="Path_549" data-name="Path 549" d="M271.042,401.853c19.1-18.953,46.2-27.635,72.835-31.456,22.214-3.185,45.549-3.3,66.331,5.177,6.509,2.656,12.931,6.35,16.781,12.233s4.395,14.377-.308,19.6c-3.965,4.41-10.409,5.483-16.337,5.7-19.514.7-38.6-4.971-57.71-8.976-32.845-6.884-68.611-8.546-98.47,6.775" transform="translate(-254.164 -368.397)" fill="#52d2bc"/>
      <path id="Path_550" data-name="Path 550" d="M270.545,383.883c39.535-16.672,96.639-11.3,121.546,5.933" transform="translate(-229.85 -360.397)" fill="none" stroke="#00ad9f" stroke-linecap="round" stroke-linejoin="round" stroke-width="1"/>
    </g>
    <g id="Group_156" data-name="Group 156" transform="translate(681 625.178)">
      <path id="Path_551" data-name="Path 551" d="M192.744,331.1c-17.865-8.583-26.425-31.456-41.105-36.373-18.19-6.288-23.29,14.034-52.7,9.008-24.684-4.216-32.187-31.978-73.451-23.387-12.6,2.621-20.965,13.274-16.232,26.048,3.54,12.715,21.047,20.759,31.466,27.25,9.239,5.217,17.42,8.014,22.9,17.715.057.1.114.211.164.316,3.682,7.885,2.211,14.916,10.817,20.684,20.155,14.744,45.256-8.668,68.184-7.982,16.17.484,15.718,17.276,35.16,22.135,19.256,4.815,12.938-12.422,53.333,3.232a2.819,2.819,0,0,0,3.647-1.617h0a2.82,2.82,0,0,0-.594-2.954C206.052,355.582,219.04,343.732,192.744,331.1Z" transform="translate(-7.913 -278.706)" fill="#4a84d8"/>
      <path id="Path_552" data-name="Path 552" d="M192.744,331.1c-17.865-8.583-26.425-31.456-41.105-36.373-18.19-6.288-23.29,14.034-52.7,9.008-24.684-4.216-32.187-31.978-73.451-23.387-12.6,2.621-20.965,13.274-16.232,26.048,3.54,12.715,21.047,20.759,31.466,27.25,9.239,5.217,17.42,8.014,22.9,17.715.057.1.114.211.164.316,3.682,7.885,2.211,14.916,10.817,20.684,20.155,14.744,45.256-8.668,68.184-7.982,16.17.484,15.718,17.276,35.16,22.135,19.256,4.815,12.938-12.422,53.333,3.232a2.819,2.819,0,0,0,3.647-1.617h0a2.82,2.82,0,0,0-.594-2.954C206.052,355.582,219.04,343.732,192.744,331.1Z" transform="translate(-7.913 -278.706)" fill="#00ad9f"/>
      <path id="Path_553" data-name="Path 553" d="M201.957,359.773c-9.423-4.569-16.414-12.824-24.038-20s-17.01-13.745-27.479-13.462c-6.422.174-12.839,2.944-19.1,1.518-8.263-1.878-13.9-10.563-22.3-11.686-4.7-.626-9.341,1.269-14.066,1.582-13.5.889-24.048-10.608-35.1-18.4a72.758,72.758,0,0,0-42.849-13.179" transform="translate(5.602 -267.686)" fill="none" stroke="#4ca1ff" stroke-miterlimit="10" stroke-width="1" opacity="0.5" style="mix-blend-mode: screen;isolation: isolate"/>
    </g>
    <g id="Group_157" data-name="Group 157" transform="translate(768.617 778.794)">
      <path id="Path_554" data-name="Path 554" d="M314.308,359.434c-58.773,6.213-68.176,11.286-82.267,5.2-17.956-7.763-36.83-5.836-54.93-13.256s-37.759-13.087-57.069-9.952c-6.1.991-12.879,3.471-13.731,10.633a11.748,11.748,0,0,0,2.268,8.129c4.253,5.932,11.2,7.925,17.85,9.756l22.22,6.129c7.224,1.992,6.765,12.638-.656,13.7l-.186.025c-6.226.845-12.528-.39-18.66-1.746-13.343-2.956-26.711-6.549-40.377-6.566-16.538-.022-34.07,5.947-42.25,21.367a28.373,28.373,0,0,0-2.956,17.922c2.882,17.055,18.833,22.749,32.972,21.472,9.947-.9,19.35-4.742,28.743-8.141,22.942-8.3,42.573.855,66.962,1.488C239.548,437.344,314.308,359.434,314.308,359.434Z" transform="translate(-43.182 -340.541)" fill="#7ee8d4"/>
      <path id="Path_555" data-name="Path 555" d="M50.689,400.654c41.848-4.78,84-9.622,124.153-22.349,11.778-3.731,26.947-4.765,60.189-29.3" transform="translate(-32.039 -327.973)" fill="none" stroke="#00ad9f" stroke-linecap="round" stroke-linejoin="round" stroke-width="1"/>
    </g>
    <g id="Group_158" data-name="Group 158" transform="translate(775.369 412.747)">
      <path id="Path_556" data-name="Path 556" d="M125.584,389.229a23.59,23.59,0,0,0,4.375,2.713c7.182,3.54,15.408,4.032,21.121,10.476,3.813,4.057,5.883,9.495,8.732,14.322a25.956,25.956,0,0,0,1.955,3.058c8.834,12.116,17.527,13.522,26.828,13.313,3.816-.089,7.763-.455,11.823-.452a39.322,39.322,0,0,1,19.944,4.708,54.365,54.365,0,0,1,14.158,11.52,2.96,2.96,0,0,0,3.756.246,3.2,3.2,0,0,0,1.461-3.254c-2.487-11.184-7.351-18.523-13.207-24.041-16.463-15.577-40.765-16.814-42.238-48.973-.311-6.889,1.153-11.773.052-16.682a17.315,17.315,0,0,0-4.211-7.714c-4.979-5.366-12.136-7.739-18.513-12.027-17.266-12.315-9.038-32.467-10.571-51.641-1.026-15.654-15.1-25.842-26.609-34.7-14.387-10.588-14.354-29.685-24.063-43.878-9.689-14.208-33.814-19.927-46.648-.84-13.629,19.052-6.144,42.874-2.226,62.2a44.888,44.888,0,0,0,5.16,13.621c7.18,12.543,19.509,21.477,30.159,32.1a76.273,76.273,0,0,1,15.857,22.257,65.585,65.585,0,0,1,4.921,15.591c.231,1.289.479,2.564.73,3.838C110.82,368.393,113.752,380.327,125.584,389.229Z" transform="translate(-45.9 -193.196)" fill="#7ee8d4"/>
      <path id="Path_557" data-name="Path 557" d="M53.639,198.281c.569,14.819,1.379,30.4,9.733,42.022,8.981,12.5,25.871,19.161,31.064,33.789,1.853,5.215,2.139,11.306,5.776,15.425,2.492,2.82,6.233,4.315,9.368,6.482,14.471,10.009,13.939,32.278,26.818,44.052,2.33,2.131,5.073,3.883,7.018,6.352,4.524,5.744,3.91,14.061,5.145,21.432,2.1,12.528,9.952,23.022,19.723,30.875s21.442,13.356,33.009,18.8" transform="translate(-34.412 -185.649)" fill="none" stroke="#4ca1ff" stroke-miterlimit="10" stroke-width="1" opacity="0.5" style="mix-blend-mode: screen;isolation: isolate"/>
      <path id="Path_558" data-name="Path 558" d="M125.51,335.28a39.321,39.321,0,0,1,19.944,4.708c.633-9.868,3.952-11.917,6.169-15.529-16.463-15.577-40.765-16.814-42.238-48.973-.311-6.889,1.153-11.773.052-16.682-4.911,10.312-13.723,12.426-13.03,22.955.6,10.861,14.488,20.913,16.978,34.611C115.433,327.687,119.6,330.572,125.51,335.28Z" transform="translate(29.01 -95.817)" fill="#5a4fd1" opacity="0.37" style="mix-blend-mode: multiply;isolation: isolate"/>
    </g>
    <g id="Group_159" data-name="Group 159" transform="translate(1052.81 810.724)">
      <path id="Path_559" data-name="Path 559" d="M193.953,356.952c-11.1-4.387-25.934-6.188-33.051,3.4-5.962,8.024-2.877,19.4,1.242,28.5,3.476,7.691,7.89,15.507,15.221,19.688,5.008,2.854,10.876,3.712,16.6,4.395a398.338,398.338,0,0,0,48.121,2.783c18.635-.052,41.207,7.557,56.624,19.179C278.926,398.117,231.322,371.709,193.953,356.952Z" transform="translate(-157.578 -353.394)" fill="#5084da"/>
      <path id="Path_560" data-name="Path 560" stroke="#0b43a4" d="M164.378,364.449c14.133.6,28.4,1.595,41.962,5.607,13.87,4.1,67.235,28.592,75.575,39.016" fill="none" transform="translate(-147.484 -336.984)" stroke-linecap="round" stroke-linejoin="round" stroke-width="1" opacity="0.31"/>
    </g>
    <g id="Group_160" data-name="Group 160" transform="translate(1616.864 400.493)">
      <path id="Path_561" data-name="Path 561" d="M399.495,328.558a22.535,22.535,0,0,0-.46,4.9c.022,7.659,3.1,14.916.012,22.552-1.851,4.993-5.629,9.08-8.551,13.577a24.328,24.328,0,0,0-1.789,2.976c-6.621,12.727-4.127,20.771.01,28.651,1.7,3.229,3.694,6.457,5.421,9.937a37.613,37.613,0,0,1,4.454,19.087,52.025,52.025,0,0,1-3.843,17.032,2.837,2.837,0,0,0,1.389,3.324,3.065,3.065,0,0,0,3.408-.134c8.524-6.892,12.742-14.183,14.975-21.546,6.337-20.734-2.944-42.079,23.979-57.029,5.771-3.2,10.578-4.022,14.314-7.053a16.613,16.613,0,0,0,4.817-6.891c2.477-6.549,1.466-13.691,2.422-20.977,3.2-20.033,23.971-21.561,39.744-31.034,12.973-7.542,15.711-23.934,18.406-37.568,2.946-16.831,19.32-24.93,27.347-39.289,8.049-14.347,2.681-37.446-19.132-40.32-22.123-3.565-39.346,12.985-54.232,24.565a42.967,42.967,0,0,0-9.475,10.215c-7.689,11.492-10.1,25.857-14.665,39.5a72.938,72.938,0,0,1-12.32,23.054,62.665,62.665,0,0,1-11.261,10.854c-1.006.748-1.992,1.5-2.979,2.258C411.064,307.044,402.086,314.633,399.495,328.558Z" transform="translate(-384.626 -188.264)" fill="#7ee8d4"/>
      <path id="Path_562" data-name="Path 562" d="M518.258,192.469c-12.454,6.792-25.452,14.116-31.856,26.222-6.886,13.015-5.4,30.321-15.726,40.993-3.682,3.806-8.777,6.643-10.757,11.512-1.356,3.334-1.046,7.177-1.568,10.784-2.415,16.657-21.72,25.68-26.326,41.724-.832,2.9-1.165,6-2.452,8.715-3,6.323-10.384,9.336-16.173,13.529-9.84,7.127-15.487,18.324-18.056,30.038s-2.318,24.053-2.057,36.281" transform="translate(-372 -182.021)" fill="none" stroke="#4ca1ff" stroke-miterlimit="10" stroke-width="1" opacity="0.5" style="mix-blend-mode: screen;isolation: isolate"/>
    </g>
    <g id="Group_161" data-name="Group 161" transform="translate(1529.707 787.371)">
      <path id="Path_563" data-name="Path 563" d="M387.375,404.08c16.92,9.545,23.822,32.462,37.861,38.213,17.385,7.316,23.68-12.228,52.121-5.423,23.869,5.709,29.419,33.342,70.328,27.593,12.491-1.754,21.355-11.634,17.549-24.431-2.646-12.662-19.248-21.653-29.022-28.674-8.7-5.694-16.521-8.956-21.253-18.794-.047-.1-.1-.214-.139-.321-3.1-7.947-1.2-14.729-9.249-20.923-18.761-15.713-44.817,5.57-67.2,3.423-15.78-1.513-14.26-17.9-32.959-23.906-18.523-5.947-13.452,11.316-51.949-6.588a2.766,2.766,0,0,0-3.672,1.347h0a2.767,2.767,0,0,0,.39,2.927C375.934,379.279,362.472,390.031,387.375,404.08Z" transform="translate(-349.542 -343.993)" fill="#4a84d8"/>
      <path id="Path_564" data-name="Path 564" d="M387.375,404.08c16.92,9.545,23.822,32.462,37.861,38.213,17.385,7.316,23.68-12.228,52.121-5.423,23.869,5.709,29.419,33.342,70.328,27.593,12.491-1.754,21.355-11.634,17.549-24.431-2.646-12.662-19.248-21.653-29.022-28.674-8.7-5.694-16.521-8.956-21.253-18.794-.047-.1-.1-.214-.139-.321-3.1-7.947-1.2-14.729-9.249-20.923-18.761-15.713-44.817,5.57-67.2,3.423-15.78-1.513-14.26-17.9-32.959-23.906-18.523-5.947-13.452,11.316-51.949-6.588a2.766,2.766,0,0,0-3.672,1.347h0a2.767,2.767,0,0,0,.39,2.927C375.934,379.279,362.472,390.031,387.375,404.08Z" transform="translate(-349.542 -343.993)" fill="#00ad9f"/>
      <path id="Path_565" data-name="Path 565" d="M356.851,351.966c8.921,5.073,15.226,13.594,22.222,21.1s15.75,14.536,26.008,14.931c6.293.244,12.747-2.052,18.781-.256,7.96,2.368,12.916,11.224,21.057,12.861,4.551.914,9.217-.641,13.86-.643,13.256,0,22.833,11.92,33.143,20.254a71.287,71.287,0,0,0,41.058,15.641" transform="translate(-338.694 -332.16)" fill="none" stroke="#4ca1ff" stroke-miterlimit="10" stroke-width="1" opacity="0.5" style="mix-blend-mode: screen;isolation: isolate"/>
    </g>
    <g id="Group_175" data-name="Group 175" transform="translate(735.999 563.804)">
      <g id="Group_162" data-name="Group 162" transform="translate(0 131.591)">
        <path id="Path_566" data-name="Path 566" d="M257.136,412.691s-73.771-16.135-130.5-10.064c-1.794.191.393-10.991.393-10.991s-11.689,12.409-14.64,12.881c-31.2,4.986-61.6,15.728-82.332,36.79,0,0,37.741-155.052,244.442-132Z" transform="translate(-30.052 -306.97)" fill="#5084da"/>
      </g>
      <g id="Group_163" data-name="Group 163" transform="translate(53.566)">
        <path id="Path_567" data-name="Path 567" d="M268.016,499.63s-33.051-14.836-74.31-47.052c-1.645-1.284,5.833-11.187,5.833-11.187s-16.436,2.681-19.291.278C132.957,401.879,78.857,340.472,51.614,254c0,0,45.289,1.915,108.668,25.059,2.7.989,9.945,14.511,9.945,14.511s2.949-9.6,5.329-8.645c58.088,23.395,128.513,64.38,192.776,136.1Z" transform="translate(-51.614 -254.001)" fill="#5193f4"/>
      </g>
      <g id="Group_170" data-name="Group 170" transform="translate(53.566 2.107)" opacity="0.4" style="mix-blend-mode: multiply;isolation: isolate">
        <g id="Group_164" data-name="Group 164">
          <path id="Path_568" data-name="Path 568" d="M51.614,254.849c27.752,12.31,54.476,26.868,80.568,42.414,26.122,15.519,51.321,32.567,75.89,50.449,12.337,8.881,24.1,18.52,36.069,27.879l17.442,14.675c2.892,2.462,5.838,4.862,8.688,7.376l8.382,7.726c22.731,20.182,43.632,42.33,63.677,65.081L326.273,454.33l-7.99-8.081c-2.71-2.646-5.537-5.175-8.3-7.768l-16.521-15.592L276.4,407.9c-11.276-10.1-23.171-19.482-34.778-29.188-12-9.219-23.8-18.7-36.159-27.454-24.254-18.108-49.388-35.033-75.046-51.119q-19.221-12.1-38.926-23.434Q71.84,265.279,51.614,254.849Z" transform="translate(-51.614 -254.849)" fill="#5084da"/>
        </g>
        <g id="Group_165" data-name="Group 165" transform="translate(82.392 92.128)">
          <path id="Path_569" data-name="Path 569" d="M175.317,307.668c-7.51-1.828-15.005-3.461-22.47-5.108-7.483-1.57-14.963-3.063-22.48-4.278-7.508-1.294-15.06-2.151-22.639-2.909-7.592-.616-15.2-.909-22.947-.884a100.494,100.494,0,0,1,23.1-2.554,153.052,153.052,0,0,1,23.2,1.995C146.36,296.576,161.41,300.832,175.317,307.668Z" transform="translate(-84.779 -291.933)" fill="#5084da"/>
        </g>
        <g id="Group_166" data-name="Group 166" transform="translate(36.956 54.245)">
          <path id="Path_570" data-name="Path 570" d="M129.884,280.6c-5.349-.32-10.663-.509-15.959-.71-5.3-.149-10.586-.243-15.865-.147-5.282.045-10.541.393-15.805.81-5.254.517-10.481,1.255-15.765,2.228a69.716,69.716,0,0,1,15.445-4.593,106.1,106.1,0,0,1,16.076-1.5A113.033,113.033,0,0,1,129.884,280.6Z" transform="translate(-66.49 -276.684)" fill="#5084da"/>
        </g>
        <g id="Group_167" data-name="Group 167" transform="translate(153.991 147.055)">
          <path id="Path_571" data-name="Path 571" d="M198.006,329.881a145.928,145.928,0,0,0-20.486-6.986,134.115,134.115,0,0,0-21.034-3.9,126.865,126.865,0,0,0-21.355-.676A187.555,187.555,0,0,0,113.6,320.7a81.349,81.349,0,0,1,21.218-5.808,87.465,87.465,0,0,1,22.155-.278,91.074,91.074,0,0,1,21.574,5.011A73.172,73.172,0,0,1,198.006,329.881Z" transform="translate(-113.6 -314.043)" fill="#5084da"/>
        </g>
        <g id="Group_168" data-name="Group 168" transform="translate(134.919 58.269)">
          <path id="Path_572" data-name="Path 572" d="M143.933,327.9a283.734,283.734,0,0,0-17.32-26.13c-3.061-4.179-6.39-8.143-9.833-12.031-3.394-3.96-7.162-7.535-10.856-11.433a58.994,58.994,0,0,1,13.281,8.988,76.769,76.769,0,0,1,10.931,11.823,85.361,85.361,0,0,1,8.424,13.691A62.472,62.472,0,0,1,143.933,327.9Z" transform="translate(-105.923 -278.304)" fill="#5084da"/>
        </g>
        <g id="Group_169" data-name="Group 169" transform="translate(197.571 97.446)">
          <path id="Path_573" data-name="Path 573" d="M171.159,358.064c-2.854-5.741-5.806-11.356-8.7-16.963-2.966-5.575-5.962-11.1-9.175-16.5-3.177-5.416-6.638-10.628-10.218-15.785a187.85,187.85,0,0,0-11.92-14.744,69.673,69.673,0,0,1,14.61,12.6,110.9,110.9,0,0,1,11.321,15.686C163.512,333.5,168.632,345.452,171.159,358.064Z" transform="translate(-131.142 -294.074)" fill="#5084da"/>
        </g>
      </g>
      <g id="Group_172" data-name="Group 172" transform="translate(31.754 177.442)" opacity="0.5" style="mix-blend-mode: screen;isolation: isolate">
        <g id="Group_171" data-name="Group 171">
          <path id="Path_574" data-name="Path 574" d="M42.834,379.985c9.406-12.846,22.319-22.823,36.03-30.929,13.793-8.126,28.927-13.775,44.392-17.788l11.731-2.484c3.9-.867,7.9-1.148,11.853-1.712,7.9-1.2,15.895-1.324,23.854-1.563,3.977-.256,7.957.149,11.93.288l11.9.581c7.885,1,15.75,2.087,23.561,3.324-7.94-.244-15.808-.9-23.683-1.165l-11.82.045c-3.933.067-7.87-.137-11.785.32-7.826.733-15.691.864-23.414,2.31-3.861.648-7.791.909-11.6,1.806l-11.463,2.529A200.286,200.286,0,0,0,80.506,352.01a116.456,116.456,0,0,0-10.2,5.818c-1.652,1.056-3.346,2.052-4.966,3.158l-4.777,3.433A114.359,114.359,0,0,0,42.834,379.985Z" transform="translate(-42.834 -325.427)" fill="#4ca1ff"/>
        </g>
      </g>
      <g id="Group_174" data-name="Group 174" transform="translate(138.85 179.5)" opacity="0.5" style="mix-blend-mode: screen;isolation: isolate">
        <g id="Group_173" data-name="Group 173">
          <path id="Path_575" data-name="Path 575" d="M106.436,326.255c-4.3,6.854-8.486,13.336-11.987,20.19a81.118,81.118,0,0,0-7.788,21.829c-1.9-8,.181-16.6,3.863-23.839a54.227,54.227,0,0,1,6.842-10.114A40.869,40.869,0,0,1,106.436,326.255Z" transform="translate(-85.943 -326.255)" fill="#4ca1ff"/>
        </g>
      </g>
    </g>
    <rect id="Rectangle_29" data-name="Rectangle 29" width="122.174" height="84.022" transform="translate(1221.092 793.096)" fill="#0056ec"/>
    <rect id="Rectangle_30" data-name="Rectangle 30" width="122.174" height="30.453" transform="translate(1221.092 793.096)" fill="#605aca" opacity="0.5" style="mix-blend-mode: multiply;isolation: isolate"/>
    <path id="Path_576" data-name="Path 576" d="M456.452,379.587H208.467a14.18,14.18,0,1,0,0,28.361H456.452a14.18,14.18,0,0,0,14.18-14.18h0A14.182,14.182,0,0,0,456.452,379.587Z" transform="translate(949.72 496.209)" fill="#0056ec"/>
    <path id="Path_577" data-name="Path 577" d="M470.638,387.355a14.182,14.182,0,0,1-14.185,14.168H208.473a14.184,14.184,0,0,1-14.188-14.168,12.581,12.581,0,0,1,.45-3.441,14.136,14.136,0,0,0,13.738,10.749h247.98a14.131,14.131,0,0,0,13.736-10.749A12.486,12.486,0,0,1,470.638,387.355Z" transform="translate(949.717 502.632)" fill="#605aca" opacity="0.5" style="mix-blend-mode: multiply;isolation: isolate"/>
    <g id="Group_179" data-name="Group 179" transform="translate(885.011 276.334)">
      <g id="Group_177" data-name="Group 177">
        <g id="Group_176" data-name="Group 176">
          <rect id="Rectangle_31" data-name="Rectangle 31" width="781.915" height="522.269" rx="3.5" transform="translate(5.988 6.211)" fill="url(#linear-gradient)"/>
          <path id="Path_578" data-name="Path 578" d="M869.464,150.708a2.488,2.488,0,0,1,2.484,2.484V658.072a2.489,2.489,0,0,1-2.484,2.484H104.94a2.487,2.487,0,0,1-2.484-2.484V153.192a2.487,2.487,0,0,1,2.484-2.484H869.464m0-12.421H104.94a14.906,14.906,0,0,0-14.906,14.906V658.072a14.906,14.906,0,0,0,14.906,14.906H869.464a14.906,14.906,0,0,0,14.906-14.906V153.192a14.907,14.907,0,0,0-14.906-14.906Z" transform="translate(-90.045 -138.286)" fill="#040026"/>
        </g>
      </g>
      <g id="Group_178" data-name="Group 178" transform="translate(0 469.4)">
        <path id="Path_579" data-name="Path 579" d="M884.367,376.591V327.233H90.034v49.358a16.814,16.814,0,0,0,16.819,16.819h760.7A16.813,16.813,0,0,0,884.367,376.591Z" transform="translate(-90.034 -327.233)" fill="#040026"/>
      </g>
    </g>
    <g id="Group_187" data-name="Group 187" transform="translate(0 94.264)">
      <path id="Path_580" data-name="Path 580" d="M406.527,379.731V363.3a9.791,9.791,0,0,0-9.791-9.791h-.854V338.275a40.6,40.6,0,0,0-81.209,0v15.231h-.852a9.791,9.791,0,0,0-9.791,9.791v16.434Zm-78.435-41.456a27.186,27.186,0,1,1,54.372,0v15.231H328.092Z" transform="translate(1105.672 374.622)" opacity="0.09" style="mix-blend-mode: multiply;isolation: isolate"/>
      <g id="Group_180" data-name="Group 180" transform="translate(1399.574 672.293)">
        <path id="Path_581" data-name="Path 581" d="M344.984,297.671a40.65,40.65,0,0,0-40.6,40.6v39.049h81.208V338.275A40.65,40.65,0,0,0,344.984,297.671ZM317.8,363.9V338.275a27.186,27.186,0,0,1,54.372,0V363.9Z" transform="translate(-293.736 -297.671)" fill="#f9714e"/>
        <path id="Path_582" data-name="Path 582" d="M342.352,303.114a32.461,32.461,0,0,0-32.423,32.423v31.179h64.846V335.537A32.46,32.46,0,0,0,342.352,303.114Zm27.186,58.209H315.166V335.693a27.186,27.186,0,0,1,54.372,0Z" transform="translate(-291.104 -295.089)" fill="#f9714e" opacity="0.4" style="mix-blend-mode: multiply;isolation: isolate"/>
        <rect id="Rectangle_32" data-name="Rectangle 32" width="102.496" height="81.765" rx="6.766" transform="translate(0 55.836)" fill="#ffb255"/>
        <path id="Path_583" data-name="Path 583" d="M351.616,364.226a14.9,14.9,0,1,0-21.759,13.219v16.11h13.718v-16.11A14.891,14.891,0,0,0,351.616,364.226Z" transform="translate(-285.467 -273.171)" fill="#f9714e"/>
        <path id="Path_584" data-name="Path 584" d="M389.686,335.544H365.062A153.374,153.374,0,0,1,340.671,381.9c-9.9,12.868-25.5,29.2-43.132,28.855a9.786,9.786,0,0,0,9.232,6.555h82.915a9.79,9.79,0,0,0,9.791-9.789V345.333A9.79,9.79,0,0,0,389.686,335.544Z" transform="translate(-296.981 -279.707)" fill="#ffb255" opacity="0.4" style="mix-blend-mode: multiply;isolation: isolate"/>
      </g>
    </g>
    <path id="Path_585" data-name="Path 585" d="M148.669,493.281a60.747,60.747,0,0,0-34.482,26.063H216.672a60.738,60.738,0,0,0-34.482-26.063V242.206H148.669V246.3h-35.8v30.221h35.8v7.2h-35.8V313.94h35.8Z" transform="translate(828.877 292.296)" opacity="0.09" style="mix-blend-mode: multiply;isolation: isolate"/>
    <g id="Group_182" data-name="Group 182" transform="translate(955.769 607.599)">
      <rect id="Rectangle_33" data-name="Rectangle 33" width="34.446" height="24.245" transform="translate(40.804 27.531) rotate(180)" fill="#ffb255"/>
      <rect id="Rectangle_34" data-name="Rectangle 34" width="34.446" height="24.245" transform="translate(40.804 57.55) rotate(180)" fill="#ffb255"/>
      <rect id="Rectangle_35" data-name="Rectangle 35" width="8.78" height="24.246" transform="translate(40.804 27.531) rotate(180)" fill="#ffc87c" opacity="0.5" style="mix-blend-mode: multiply;isolation: isolate"/>
      <rect id="Rectangle_36" data-name="Rectangle 36" width="8.78" height="24.245" transform="translate(40.804 57.55) rotate(180)" fill="#ffc87c" opacity="0.5" style="mix-blend-mode: multiply;isolation: isolate"/>
      <rect id="Rectangle_37" data-name="Rectangle 37" width="26.893" height="210.74" transform="translate(61.967 210.74) rotate(180)" fill="#ffb255"/>
      <rect id="Rectangle_38" data-name="Rectangle 38" width="4.114" height="210.74" rx="0.822" transform="translate(50.578 217.996) rotate(-180)" fill="#ffc87c" opacity="0.5" style="mix-blend-mode: multiply;isolation: isolate"/>
      <g id="Group_181" data-name="Group 181" transform="translate(0 199.517)">
        <path id="Path_586" data-name="Path 586" d="M118.516,390.833a48.52,48.52,0,1,1,48.52,48.52A48.576,48.576,0,0,1,118.516,390.833Zm25.021,0a23.5,23.5,0,1,0,23.5-23.5A23.527,23.527,0,0,0,143.537,390.833Z" transform="translate(-118.516 -342.313)" fill="#ffb255"/>
      </g>
      <path id="Path_587" data-name="Path 587" d="M129.923,379.506a25.787,25.787,0,1,0,25.786-25.786A25.815,25.815,0,0,0,129.923,379.506Zm2.286,0a23.5,23.5,0,1,1,23.5,23.5A23.527,23.527,0,0,1,132.209,379.506Z" transform="translate(-107.188 -131.468)" fill="#ffc87c" opacity="0.5" style="mix-blend-mode: multiply;isolation: isolate"/>
    </g>
    <g id="Group_183" data-name="Group 183" transform="translate(792.74 427.788)">
      <path id="Path_588" data-name="Path 588" d="M68.894,263.5c2.594-.137,20.279-13.236,27.091-17.651a18.668,18.668,0,0,0,5.2-4.395,6.562,6.562,0,0,0,.989-6.454c-1.21-2.564-3.215-5.123-8.278-5.113-8.812.02-11.87,2.914-16.155,7.346C63.573,251.885,68.894,263.5,68.894,263.5Z" transform="translate(-30.594 -153.777)" fill="#00ad9f"/>
      <path id="Path_589" data-name="Path 589" d="M107.776,271.49c7.7,3.461,15.929,6.911,24.3,5.841,3.249-.417,6.795-1.893,7.875-4.983.924-2.641-.348-5.669-2.445-7.525a17.383,17.383,0,0,0-7.575-3.416c-10.25-2.5-24.642-1.118-34.793,1.764C95.141,263.17,103.18,269.425,107.776,271.49Z" transform="translate(9.818 -108.929)" fill="#00ad9f"/>
      <path id="Path_590" data-name="Path 590" d="M124.961,228.66c-3.436-2.171-7.229-5.073-7.227-9.135s4.253-7.177,8.325-7.2,7.855,2.2,10.916,4.889c12.958,11.376,11.343,24.349,11.343,24.349S128.784,231.075,124.961,228.66Z" transform="translate(43.353 -179.843)" fill="#00ad9f"/>
      <path id="Path_591" data-name="Path 591" d="M130.091,213.367c-3.013-1.294-6.124-2.857-7.893-5.622a5.364,5.364,0,0,1-.817-4.554c.887-2.522,2.467-4.785,8.819-3.632,20.113,3.649,24.5,17.425,24.5,17.425S135.432,215.663,130.091,213.367Z" transform="translate(48.438 -199.251)" fill="#00ad9f"/>
      <path id="Path_592" data-name="Path 592" d="M148.476,234.586c8.069-.7,16.4-4.715,21.484-11.018a19.657,19.657,0,0,0,4.318-7.992c.641-2.989-.042-6.417-2.358-8.412-2.825-2.435-7.3-2.045-10.417.01s-5.108,5.4-6.727,8.76C152.62,220.411,148.476,234.586,148.476,234.586Z" transform="translate(88.983 -190)" fill="#00ad9f"/>
      <path id="Path_593" data-name="Path 593" d="M146.292,531.534l-58.6-51.663c-10.412-9.177-21.042-18.625-27.635-30.837-14.175-26.252-6-60.363,13.139-83.246s47.184-36.4,75.351-46.233,57.489-16.734,84.342-29.737c16.839-8.158,33.772-20.309,38.39-38.442a38.355,38.355,0,0,0-34.884-47.756" transform="translate(-52.892 -192.765)" fill="none" stroke="#086356" stroke-linecap="round" stroke-linejoin="round" stroke-width="1"/>
      <path id="Path_594" data-name="Path 594" d="M175.252,209.66c-5.339,16.391-26.13,26.363-35.62,40.559" transform="translate(75.856 -183.8)" fill="none" stroke="#086356" stroke-linecap="round" stroke-linejoin="round" stroke-width="1"/>
      <path id="Path_595" data-name="Path 595" d="M123.921,217.248c4.094,4.323,9,7.9,12.571,12.66,7.547,10.066,8.178,26.418-2.989,36.566" transform="translate(52.536 -172.537)" fill="none" stroke="#086356" stroke-linecap="round" stroke-linejoin="round" stroke-width="1"/>
      <path id="Path_596" data-name="Path 596" d="M81.576,254.185c17.234,13.281,39.89,22.133,61.633,22.975" transform="translate(-10.317 -117.712)" fill="none" stroke="#086356" stroke-linecap="round" stroke-linejoin="round" stroke-width="1"/>
      <path id="Path_597" data-name="Path 597" d="M67.444,303.532c-7.937-23.4.708-51.432,20.448-66.3" transform="translate(-35.64 -142.869)" fill="none" stroke="#086356" stroke-linecap="round" stroke-linejoin="round" stroke-width="1"/>
    </g>
    <g id="Group_184" data-name="Group 184" transform="translate(1505.196 252.965)">
      <path id="Path_598" data-name="Path 598" d="M340.968,140.844c-.932-2.9-.887-6.454,1.247-8.618a6.321,6.321,0,0,1,6.735-1.513c17.087,7.537,15.239,34.273,15.239,34.273S347.983,162.638,340.968,140.844Z" transform="translate(-338.618 -126.791)" fill="#00ad9f"/>
      <path id="Path_599" data-name="Path 599" d="M341.611,158.425c-11.053,20.038,28.231,18.508,42.4,6.71C384.008,165.135,351.126,141.179,341.611,158.425Z" transform="translate(-339.676 -94.291)" fill="#00ad9f"/>
      <path id="Path_600" data-name="Path 600" d="M361.935,144.45c-2.666-3.667-3.615-9.127-.711-12.608,2.164-2.594,5.928-3.394,9.237-2.753a21.626,21.626,0,0,1,10.382,6.345c12.928,16.131,6.852,31.921,6.852,31.921S366.305,150.457,361.935,144.45Z" transform="translate(-310.332 -128.879)" fill="#00ad9f"/>
      <path id="Path_601" data-name="Path 601" d="M423.56,161.609c-.954-3.12-.73-6.929,1.687-9.115A7.711,7.711,0,0,1,431,150.773a17.433,17.433,0,0,1,5.875,1.759,18.8,18.8,0,0,1,9.048,9.02c4.859,10.039,1.558,22.463,1.558,22.463S425.937,169.385,423.56,161.609Z" transform="translate(-215.948 -96.425)" fill="#00ad9f"/>
      <path id="Path_602" data-name="Path 602" d="M423.486,173.582a25.167,25.167,0,0,0-26.048-4.2,13.36,13.36,0,0,0-5.572,4.193c-3.1,4.305-2.015,10.6,1.2,14.816s8.1,6.782,12.926,8.978c8.742,3.98,22.312,4.775,31.615,7.157C437.612,204.524,437.572,185.994,423.486,173.582Z" transform="translate(-264.949 -71.631)" fill="#00ad9f"/>
      <path id="Path_603" data-name="Path 603" d="M345.551,136.266c5.778,18.975,22.135,33.294,40.347,41.04s38.268,9.791,58.008,11.073,39.714,1.918,58.8,7.115c18.6,5.066,37.13,15.616,45.115,33.217,9.716,21.42,1.113,47.038-12.531,66.184s-32.013,34.579-45.212,54.036c-6.062,8.934-11.122,19.395-9.9,30.132,1.632,14.312,13.656,24.853,24.828,33.908" transform="translate(-330.956 -117.916)" fill="none" stroke="#086356" stroke-linecap="round" stroke-linejoin="round" stroke-width="1"/>
      <path id="Path_604" data-name="Path 604" d="M363.865,133.464c13.082,14.516,23.539,37.217,26.083,56.617" transform="translate(-303.773 -122.075)" fill="none" stroke="#086356" stroke-linecap="round" stroke-linejoin="round" stroke-width="1"/>
      <path id="Path_605" data-name="Path 605" d="M346.16,159.414c7.48,1.99,15.06,3.995,22.8,4.015s16.7-4.28,22.264-9.674" transform="translate(-330.052 -91.957)" fill="none" stroke="#086356" stroke-linecap="round" stroke-linejoin="round" stroke-width="1"/>
      <path id="Path_606" data-name="Path 606" d="M428.4,155.593a38.8,38.8,0,0,1,11.631,26.115c.363,9.763-5.038,21.6-11.52,28.892" transform="translate(-207.987 -89.229)" fill="none" stroke="#086356" stroke-linecap="round" stroke-linejoin="round" stroke-width="1"/>
      <path id="Path_607" data-name="Path 607" d="M398.885,173.431c13.994,12.926,26.18,23.375,41.741,34.35,7.1,5.011,21.2,11.435,27.461,9.781" transform="translate(-251.793 -62.752)" fill="none" stroke="#086356" stroke-linecap="round" stroke-linejoin="round" stroke-width="1"/>
    </g>
  </g>
</svg>
