<svg xmlns="http://www.w3.org/2000/svg" xmlns:xlink="http://www.w3.org/1999/xlink" width="1289.634" height="900" viewBox="0 0 1289.634 900">
  <defs>
    <linearGradient id="linear-gradient" x1="0.011" y1="0.022" x2="1" y2="0.896" gradientUnits="objectBoundingBox">
      <stop offset="0" stop-color="#040026"/>
      <stop offset="1" stop-color="#2a3752"/>
    </linearGradient>
  </defs>
  <g id="Group_204" data-name="Group 204" transform="translate(-298.186 -90)">
    <g id="Group_201" data-name="Group 201" transform="translate(-184 -186.334)">
      <g id="Group_200" data-name="Group 200" transform="translate(946.285 1017.125)">
        <rect id="Rectangle_29" data-name="Rectangle 29" width="175.139" height="120.448" transform="translate(110.511)" fill="#0056ec"/>
        <rect id="Rectangle_30" data-name="Rectangle 30" width="175.139" height="43.655" transform="translate(110.511)" fill="#605aca" opacity="0.5" style="mix-blend-mode: multiply;isolation: isolate"/>
        <path id="Path_576" data-name="Path 576" d="M570.107,379.587H214.615a20.328,20.328,0,1,0,0,40.656H570.107a20.328,20.328,0,0,0,20.328-20.328h0A20.33,20.33,0,0,0,570.107,379.587Z" transform="translate(-194.28 -261.034)" fill="#0056ec"/>
        <path id="Path_577" data-name="Path 577" d="M590.443,388.846a20.33,20.33,0,0,1-20.335,20.31H214.624a20.333,20.333,0,0,1-20.339-20.31,18.037,18.037,0,0,1,.645-4.932,20.264,20.264,0,0,0,19.694,15.41H570.109a20.257,20.257,0,0,0,19.69-15.41A17.9,17.9,0,0,1,590.443,388.846Z" transform="translate(-194.285 -249.951)" fill="#605aca" opacity="0.5" style="mix-blend-mode: multiply;isolation: isolate"/>
      </g>
      <g id="Group_179" data-name="Group 179" transform="translate(575 276.334)">
        <g id="Group_177" data-name="Group 177" transform="translate(0)">
          <g id="Group_176" data-name="Group 176">
            <rect id="Rectangle_31" data-name="Rectangle 31" width="1120.895" height="748.686" rx="3.5" transform="translate(8.601 8.904)" fill="url(#linear-gradient)"/>
            <path id="Path_578" data-name="Path 578" d="M1207.366,156.093a3.568,3.568,0,0,1,3.562,3.561V883.413a3.568,3.568,0,0,1-3.562,3.561H111.4a3.565,3.565,0,0,1-3.561-3.561V159.654a3.565,3.565,0,0,1,3.561-3.561H1207.366m0-17.807H111.4a21.369,21.369,0,0,0-21.368,21.368V883.413A21.369,21.369,0,0,0,111.4,904.78H1207.366a21.369,21.369,0,0,0,21.368-21.368V159.654a21.369,21.369,0,0,0-21.368-21.368Z" transform="translate(-90.034 -138.286)" fill="#040026"/>
          </g>
        </g>
        <g id="Group_178" data-name="Group 178" transform="translate(0.016 672.896)">
          <path id="Path_579" data-name="Path 579" d="M1228.73,397.989V327.233H90.034v70.756a24.1,24.1,0,0,0,24.11,24.11h1090.48A24.1,24.1,0,0,0,1228.73,397.989Z" transform="translate(-90.034 -327.233)" fill="#040026"/>
        </g>
      </g>
    </g>
    <g id="Group_203" data-name="Group 203">
      <g id="Group_183" data-name="Group 183" transform="translate(298.74 427.788)">
        <path id="Path_588" data-name="Path 588" d="M68.894,263.5c2.594-.137,20.279-13.236,27.091-17.651a18.668,18.668,0,0,0,5.2-4.395,6.562,6.562,0,0,0,.989-6.454c-1.21-2.564-3.215-5.123-8.278-5.113-8.812.02-11.87,2.914-16.155,7.346C63.573,251.885,68.894,263.5,68.894,263.5Z" transform="translate(-30.594 -153.777)" fill="#00ad9f"/>
        <path id="Path_589" data-name="Path 589" d="M107.776,271.49c7.7,3.461,15.929,6.911,24.3,5.841,3.249-.417,6.795-1.893,7.875-4.983.924-2.641-.348-5.669-2.445-7.525a17.383,17.383,0,0,0-7.575-3.416c-10.25-2.5-24.642-1.118-34.793,1.764C95.141,263.17,103.18,269.425,107.776,271.49Z" transform="translate(9.818 -108.929)" fill="#00ad9f"/>
        <path id="Path_590" data-name="Path 590" d="M124.961,228.66c-3.436-2.171-7.229-5.073-7.227-9.135s4.253-7.177,8.325-7.2,7.855,2.2,10.916,4.889c12.958,11.376,11.343,24.349,11.343,24.349S128.784,231.075,124.961,228.66Z" transform="translate(43.353 -179.843)" fill="#00ad9f"/>
        <path id="Path_591" data-name="Path 591" d="M130.091,213.367c-3.013-1.294-6.124-2.857-7.893-5.622a5.364,5.364,0,0,1-.817-4.554c.887-2.522,2.467-4.785,8.819-3.632,20.113,3.649,24.5,17.425,24.5,17.425S135.432,215.663,130.091,213.367Z" transform="translate(48.438 -199.251)" fill="#00ad9f"/>
        <path id="Path_592" data-name="Path 592" d="M148.476,234.586c8.069-.7,16.4-4.715,21.484-11.018a19.657,19.657,0,0,0,4.318-7.992c.641-2.989-.042-6.417-2.358-8.412-2.825-2.435-7.3-2.045-10.417.01s-5.108,5.4-6.727,8.76C152.62,220.411,148.476,234.586,148.476,234.586Z" transform="translate(88.983 -190)" fill="#00ad9f"/>
        <path id="Path_593" data-name="Path 593" d="M146.292,531.534l-58.6-51.663c-10.412-9.177-21.042-18.625-27.635-30.837-14.175-26.252-6-60.363,13.139-83.246s47.184-36.4,75.351-46.233,57.489-16.734,84.342-29.737c16.839-8.158,33.772-20.309,38.39-38.442a38.355,38.355,0,0,0-34.884-47.756" transform="translate(-52.892 -192.765)" fill="none" stroke="#086356" stroke-linecap="round" stroke-linejoin="round" stroke-width="1"/>
        <path id="Path_594" data-name="Path 594" d="M175.252,209.66c-5.339,16.391-26.13,26.363-35.62,40.559" transform="translate(75.856 -183.8)" fill="none" stroke="#086356" stroke-linecap="round" stroke-linejoin="round" stroke-width="1"/>
        <path id="Path_595" data-name="Path 595" d="M123.921,217.248c4.094,4.323,9,7.9,12.571,12.66,7.547,10.066,8.178,26.418-2.989,36.566" transform="translate(52.536 -172.537)" fill="none" stroke="#086356" stroke-linecap="round" stroke-linejoin="round" stroke-width="1"/>
        <path id="Path_596" data-name="Path 596" d="M81.576,254.185c17.234,13.281,39.89,22.133,61.633,22.975" transform="translate(-10.317 -117.712)" fill="none" stroke="#086356" stroke-linecap="round" stroke-linejoin="round" stroke-width="1"/>
        <path id="Path_597" data-name="Path 597" d="M67.444,303.532c-7.937-23.4.708-51.432,20.448-66.3" transform="translate(-35.64 -142.869)" fill="none" stroke="#086356" stroke-linecap="round" stroke-linejoin="round" stroke-width="1"/>
      </g>
      <g id="Group_184" data-name="Group 184" transform="translate(1355.196 252.965)">
        <path id="Path_598" data-name="Path 598" d="M340.968,140.844c-.932-2.9-.887-6.454,1.247-8.618a6.321,6.321,0,0,1,6.735-1.513c17.087,7.537,15.239,34.273,15.239,34.273S347.983,162.638,340.968,140.844Z" transform="translate(-338.618 -126.791)" fill="#00ad9f"/>
        <path id="Path_599" data-name="Path 599" d="M341.611,158.425c-11.053,20.038,28.231,18.508,42.4,6.71C384.008,165.135,351.126,141.179,341.611,158.425Z" transform="translate(-339.676 -94.291)" fill="#00ad9f"/>
        <path id="Path_600" data-name="Path 600" d="M361.935,144.45c-2.666-3.667-3.615-9.127-.711-12.608,2.164-2.594,5.928-3.394,9.237-2.753a21.626,21.626,0,0,1,10.382,6.345c12.928,16.131,6.852,31.921,6.852,31.921S366.305,150.457,361.935,144.45Z" transform="translate(-310.332 -128.879)" fill="#00ad9f"/>
        <path id="Path_601" data-name="Path 601" d="M423.56,161.609c-.954-3.12-.73-6.929,1.687-9.115A7.711,7.711,0,0,1,431,150.773a17.433,17.433,0,0,1,5.875,1.759,18.8,18.8,0,0,1,9.048,9.02c4.859,10.039,1.558,22.463,1.558,22.463S425.937,169.385,423.56,161.609Z" transform="translate(-215.948 -96.425)" fill="#00ad9f"/>
        <path id="Path_602" data-name="Path 602" d="M423.486,173.582a25.167,25.167,0,0,0-26.048-4.2,13.36,13.36,0,0,0-5.572,4.193c-3.1,4.305-2.015,10.6,1.2,14.816s8.1,6.782,12.926,8.978c8.742,3.98,22.312,4.775,31.615,7.157C437.612,204.524,437.572,185.994,423.486,173.582Z" transform="translate(-264.949 -71.631)" fill="#00ad9f"/>
        <path id="Path_603" data-name="Path 603" d="M345.551,136.266c5.778,18.975,22.135,33.294,40.347,41.04s38.268,9.791,58.008,11.073,39.714,1.918,58.8,7.115c18.6,5.066,37.13,15.616,45.115,33.217,9.716,21.42,1.113,47.038-12.531,66.184s-32.013,34.579-45.212,54.036c-6.062,8.934-11.122,19.395-9.9,30.132,1.632,14.312,13.656,24.853,24.828,33.908" transform="translate(-330.956 -117.916)" fill="none" stroke="#086356" stroke-linecap="round" stroke-linejoin="round" stroke-width="1"/>
        <path id="Path_604" data-name="Path 604" d="M363.865,133.464c13.082,14.516,23.539,37.217,26.083,56.617" transform="translate(-303.773 -122.075)" fill="none" stroke="#086356" stroke-linecap="round" stroke-linejoin="round" stroke-width="1"/>
        <path id="Path_605" data-name="Path 605" d="M346.16,159.414c7.48,1.99,15.06,3.995,22.8,4.015s16.7-4.28,22.264-9.674" transform="translate(-330.052 -91.957)" fill="none" stroke="#086356" stroke-linecap="round" stroke-linejoin="round" stroke-width="1"/>
        <path id="Path_606" data-name="Path 606" d="M428.4,155.593a38.8,38.8,0,0,1,11.631,26.115c.363,9.763-5.038,21.6-11.52,28.892" transform="translate(-207.987 -89.229)" fill="none" stroke="#086356" stroke-linecap="round" stroke-linejoin="round" stroke-width="1"/>
        <path id="Path_607" data-name="Path 607" d="M398.885,173.431c13.994,12.926,26.18,23.375,41.741,34.35,7.1,5.011,21.2,11.435,27.461,9.781" transform="translate(-251.793 -62.752)" fill="none" stroke="#086356" stroke-linecap="round" stroke-linejoin="round" stroke-width="1"/>
      </g>
    </g>
  </g>
</svg>
